<svg xmlns="http://www.w3.org/2000/svg" width="41" height="43" viewBox="0 0 41 43">
  <path id="Sustracción_4" data-name="Sustracción 4" d="M20.5,43C9.2,43,0,33.355,0,21.5S9.2,0,20.5,0,41,9.644,41,21.5,31.8,43,20.5,43ZM14,11.9a1.062,1.062,0,0,0-.775.336l-2.07,2.17a1.207,1.207,0,0,0,0,1.634l5.7,5.973-5.7,5.976a1.21,1.21,0,0,0,0,1.634l2.07,2.169a1.085,1.085,0,0,0,.782.335,1.068,1.068,0,0,0,.777-.335l5.7-5.973,5.7,5.973a1.092,1.092,0,0,0,.783.335,1.061,1.061,0,0,0,.775-.335L29.8,29.626a1.2,1.2,0,0,0,0-1.634l-5.7-5.976,5.7-5.973a1.183,1.183,0,0,0,.327-.827,1.161,1.161,0,0,0-.327-.808l-2.068-2.17a1.086,1.086,0,0,0-.783-.336,1.064,1.064,0,0,0-.775.336l-5.7,5.973-5.7-5.973A1.086,1.086,0,0,0,14,11.9Z" fill="rgba(154,154,154,0.8)"/>
</svg>
