<svg xmlns="http://www.w3.org/2000/svg" width="568" height="79" viewBox="0 0 568 79">
  <g id="titulo" transform="translate(-125 -388)">
    <text id="Weather_App" data-name="Weather App" transform="translate(310 452)" fill="#fff" font-size="67" font-family="TrebuchetMS, Trebuchet MS"><tspan x="0" y="0">Weather App</tspan></text>
    <g id="icono" transform="translate(-81 89.845)">
      <path id="Sustracción_2" data-name="Sustracción 2" d="M4.1,35H.074C.025,34.264,0,33.519,0,32.784A32.575,32.575,0,0,1,9.665,9.6a33.114,33.114,0,0,1,46.669,0A32.574,32.574,0,0,1,66,32.784c0,.739-.025,1.484-.073,2.215H61.9c.056-.73.085-1.475.085-2.215a28.987,28.987,0,0,0-57.973,0c0,.738.028,1.483.085,2.215Z" transform="translate(251 321.155)" fill="#fff"/>
      <rect id="Rectángulo_304" data-name="Rectángulo 304" width="4.025" height="19.23" transform="matrix(-0.105, 0.995, -0.995, -0.105, 248.195, 345.972)" fill="#fff"/>
      <rect id="Rectángulo_305" data-name="Rectángulo 305" width="4.025" height="19.23" transform="matrix(0.087, 0.996, -0.996, 0.087, 339.949, 343.232)" fill="#fff"/>
      <rect id="Rectángulo_306" data-name="Rectángulo 306" width="4" height="19" transform="translate(283 298.155)" fill="#fff"/>
      <rect id="Rectángulo_308" data-name="Rectángulo 308" width="4.025" height="19.23" transform="matrix(0.438, -0.899, 0.899, 0.438, 233.817, 328.463)" fill="#fff"/>
      <rect id="Rectángulo_309" data-name="Rectángulo 309" width="4.025" height="19.23" transform="translate(263.649 302.139) rotate(-17)" fill="#fff"/>
      <rect id="Rectángulo_310" data-name="Rectángulo 310" width="4.025" height="19.23" transform="translate(245.698 312.996) rotate(-42)" fill="#fff"/>
      <rect id="Rectángulo_311" data-name="Rectángulo 311" width="4.025" height="19.23" transform="matrix(0.899, 0.438, -0.438, 0.899, 305.225, 301.669)" fill="#fff"/>
      <rect id="Rectángulo_312" data-name="Rectángulo 312" width="4.025" height="19.23" transform="matrix(0.695, 0.719, -0.719, 0.695, 322.648, 312.457)" fill="#fff"/>
      <rect id="Rectángulo_313" data-name="Rectángulo 313" width="4.025" height="19.23" transform="translate(333.394 325.661) rotate(60)" fill="#fff"/>
      <rect id="Rectángulo_315" data-name="Rectángulo 315" width="158" height="4" transform="translate(206 356.155)" fill="#fff"/>
      <rect id="Rectángulo_316" data-name="Rectángulo 316" width="112" height="4" transform="translate(229 365.155)" fill="#fff"/>
      <rect id="Rectángulo_317" data-name="Rectángulo 317" width="40" height="4" transform="translate(265 373.155)" fill="#fff"/>
    </g>
  </g>
</svg>
